<svg xmlns="http://www.w3.org/2000/svg" viewBox="0 0 800 450" width="100%" class="imt" role="img"><style>
.imt{--bg:var(--background,#fafaf9);--ink:var(--foreground,#131110);--mut:var(--muted-foreground,#6b6865);
--rule:var(--border,#dfdedb);--prule:var(--page-rule,#131110);--r:var(--roy-r,#f52027);--o:var(--roy-o,#ee7b00);
--y:var(--roy-y,#ffba06);--b:var(--roy-b,#0074c9);font-family:"Open Sans",Arial,sans-serif;font-size:13px}
@media (prefers-color-scheme:dark){.imt{--bg:var(--background,#1a1a1a);--ink:var(--foreground,#fafafa);
--mut:var(--muted-foreground,#a1a1a1);--rule:var(--border,#ffffff1a);--prule:var(--page-rule,#555)}}
.dark .imt{--bg:var(--background,#1a1a1a);--ink:var(--foreground,#fafafa);--mut:var(--muted-foreground,#a1a1a1);
--rule:var(--border,#ffffff1a);--prule:var(--page-rule,#555)}
.imt text{fill:var(--ink)}.imt .m{fill:var(--mut)}.imt .mono{font-family:ui-monospace,SFMono-Regular,Menlo,Consolas,"DejaVu Sans Mono",monospace}
.imt .kick{font-size:11px;font-weight:700;letter-spacing:.2em}.imt .h{font-size:18px;font-weight:600}
.imt .dek,.imt .cap{font-size:12px}.imt .tick{font-size:10.5px}.imt .foot{font-size:10px}.imt .lab{font-size:11px;font-weight:700}
.imt .ground{fill:var(--bg)}.imt .grid{stroke:var(--rule);opacity:.7}.imt .axis{stroke:var(--mut);opacity:.6}
.imt .ev{stroke:var(--prule);stroke-width:1;stroke-dasharray:1.5 3.5;stroke-linecap:round}
.imt .ln{fill:none;stroke-linejoin:round;stroke-linecap:round}.imt .gray{stroke:var(--mut)}
.imt .trend{stroke-dasharray:5 4;opacity:.8}.imt .hollow{fill:var(--bg)}
.imt .s-r{stroke:var(--r)}.imt .s-o{stroke:var(--o)}.imt .s-y{stroke:var(--y)}.imt .s-b{stroke:var(--b)}
.imt .f-r{fill:var(--r)}.imt .f-o{fill:var(--o)}.imt .f-y{fill:var(--y)}.imt .f-b{fill:var(--b)}
.imt .area{opacity:.12}
</style><rect class="ground" width="800" height="450"/><text x="24.0" y="24.0" class="kick mono f-r" text-anchor="start">§ FIG 1  ·  YC BATCH COMPOSITION</text><text x="24.0" y="50.0" class="h" text-anchor="start">B2B peaked at 69% of a YC batch in 2023. Industrials has tripled since 2019.</text><text x="24.0" y="70.0" class="dek m" text-anchor="start">Share of each batch's companies carrying YC's top-level industry label, Winter 2019 to Fall 2026.</text><text x="24.0" y="86.0" class="dek m" text-anchor="start">Gray: Healthcare, Fintech, Consumer, Real Estate &amp; Construction, Education, Government.</text><line x1="52.0" y1="362.0" x2="708.0" y2="362.0" class="axis" stroke-width="1"/><text x="44.0" y="365.5" class="tick mono m" text-anchor="end">0</text><line x1="52.0" y1="284.0" x2="708.0" y2="284.0" class="grid" stroke-width="1"/><text x="44.0" y="287.5" class="tick mono m" text-anchor="end">25%</text><line x1="52.0" y1="206.0" x2="708.0" y2="206.0" class="grid" stroke-width="1"/><text x="44.0" y="209.5" class="tick mono m" text-anchor="end">50%</text><line x1="52.0" y1="128.0" x2="708.0" y2="128.0" class="grid" stroke-width="1"/><text x="44.0" y="131.5" class="tick mono m" text-anchor="end">75%</text><text x="52.0" y="377.0" class="tick mono m" text-anchor="middle">W19</text><text x="84.8" y="377.0" class="tick mono m" text-anchor="middle">S19</text><text x="117.6" y="377.0" class="tick mono m" text-anchor="middle">W20</text><text x="150.4" y="377.0" class="tick mono m" text-anchor="middle">S20</text><text x="183.2" y="377.0" class="tick mono m" text-anchor="middle">W21</text><text x="216.0" y="377.0" class="tick mono m" text-anchor="middle">S21</text><text x="248.8" y="377.0" class="tick mono m" text-anchor="middle">W22</text><text x="281.6" y="377.0" class="tick mono m" text-anchor="middle">S22</text><text x="314.4" y="377.0" class="tick mono m" text-anchor="middle">W23</text><text x="347.2" y="377.0" class="tick mono m" text-anchor="middle">S23</text><text x="380.0" y="377.0" class="tick mono m" text-anchor="middle">W24</text><text x="412.8" y="377.0" class="tick mono m" text-anchor="middle">S24</text><text x="445.6" y="377.0" class="tick mono m" text-anchor="middle">F24</text><text x="478.4" y="377.0" class="tick mono m" text-anchor="middle">W25</text><text x="511.2" y="377.0" class="tick mono m" text-anchor="middle">X25</text><text x="544.0" y="377.0" class="tick mono m" text-anchor="middle">S25</text><text x="576.8" y="377.0" class="tick mono m" text-anchor="middle">F25</text><text x="609.6" y="377.0" class="tick mono m" text-anchor="middle">W26</text><text x="642.4" y="377.0" class="tick mono m" text-anchor="middle">X26</text><text x="675.2" y="377.0" class="tick mono m" text-anchor="middle">S26</text><text x="708.0" y="377.0" class="tick mono m" text-anchor="middle">F26</text><line x1="305.0" y1="122.0" x2="305.0" y2="362.0" class="ev" stroke-width="1"/><text x="310.0" y="132.0" class="tick mono" text-anchor="start">ChatGPT · Nov 2022</text><path d="M52.0,321.8 L84.8,319.5 L117.6,312.7 L150.4,314.2 L183.2,323.9 L216.0,310.9 L248.8,327.5 L281.6,330.0 L314.4,335.8 L347.2,322.3 L380.0,325.5 L412.8,333.1 L445.6,332.1 L478.4,341.3 L511.2,338.0 L544.0,339.4 L576.8,338.5 L609.6,336.9 L642.4,334.8 L675.2,334.1 L708.0,362.0" class="ln gray" stroke-width="1.25" opacity=".45"><title>Healthcare</title></path><path d="M52.0,326.6 L84.8,317.7 L117.6,318.2 L150.4,324.7 L183.2,314.6 L216.0,311.7 L248.8,291.4 L281.6,304.7 L314.4,325.6 L347.2,339.3 L380.0,339.4 L412.8,346.9 L445.6,342.1 L478.4,339.4 L511.2,346.7 L544.0,345.1 L576.8,344.9 L609.6,333.8 L642.4,328.4 L675.2,340.8 L708.0,335.3" class="ln gray" stroke-width="1.25" opacity=".45"><title>Fintech</title></path><path d="M52.0,302.5 L84.8,314.1 L117.6,322.3 L150.4,321.7 L183.2,325.8 L216.0,330.9 L248.8,332.2 L281.6,332.7 L314.4,338.1 L347.2,349.2 L380.0,326.8 L412.8,338.1 L445.6,325.5 L478.4,345.1 L511.2,346.7 L544.0,339.4 L576.8,325.7 L609.6,349.5 L642.4,341.2 L675.2,347.4 L708.0,317.4" class="ln gray" stroke-width="1.25" opacity=".45"><title>Consumer</title></path><path d="M52.0,354.0 L84.8,342.5 L117.6,349.7 L150.4,354.5 L183.2,356.4 L216.0,355.6 L248.8,351.0 L281.6,350.0 L314.4,357.4 L347.2,353.5 L380.0,358.2 L412.8,357.0 L445.6,348.7 L478.4,358.2 L511.2,359.8 L544.0,354.5 L576.8,351.3 L609.6,357.3 L642.4,355.6 L675.2,354.0 L708.0,362.0" class="ln gray" stroke-width="1.25" opacity=".45"><title>Real Estate and Construction</title></path><path d="M52.0,350.7 L84.8,353.1 L117.6,355.2 L150.4,356.0 L183.2,349.9 L216.0,350.0 L248.8,355.7 L281.6,360.7 L314.4,358.6 L347.2,357.7 L380.0,358.2 L412.8,360.7 L445.6,358.7 L478.4,352.6 L511.2,355.5 L544.0,358.2 L576.8,362.0 L609.6,362.0 L642.4,362.0 L675.2,360.7 L708.0,362.0" class="ln gray" stroke-width="1.25" opacity=".45"><title>Education</title></path><path d="M52.0,358.8 L84.8,358.5 L117.6,362.0 L150.4,357.5 L183.2,361.1 L216.0,361.2 L248.8,361.2 L281.6,362.0 L314.4,360.9 L347.2,362.0 L380.0,360.7 L412.8,357.0 L445.6,358.7 L478.4,354.5 L511.2,357.6 L544.0,360.1 L576.8,357.7 L609.6,362.0 L642.4,360.4 L675.2,359.3 L708.0,353.1" class="ln gray" stroke-width="1.25" opacity=".45"><title>Government</title></path><path d="M52.0,231.6 L281.6,205.6" class="ln trend s-b" stroke-width="1.5"><title>B2B, least-squares fit W19–S22: +1.19 pp per batch</title></path><path d="M314.4,150.1 L708.0,183.1" class="ln trend s-b" stroke-width="1.5"><title>B2B, least-squares fit W23–S26: -0.88 pp per batch</title></path><path d="M52.0,231.7 L84.8,237.9 L117.6,225.2 L150.4,202.3 L183.2,211.6 L216.0,217.6 L248.8,221.7 L281.6,200.7 L314.4,152.5 L347.2,146.4 L380.0,165.7 L412.8,160.7 L445.6,172.8 L478.4,166.5 L511.2,150.4 L544.0,151.5 L576.8,171.8 L609.6,164.5 L642.4,179.6 L675.2,200.0 L708.0,201.5" class="ln s-b" stroke-width="2.25"></path><circle cx="52.0" cy="231.7" r="3.6" class="s-b f-b" stroke-width="1.6"><title>W19 · B2B · 41.8% (81 of 194)</title></circle><circle cx="84.8" cy="237.9" r="3.6" class="s-b f-b" stroke-width="1.6"><title>S19 · B2B · 39.8% (70 of 176)</title></circle><circle cx="117.6" cy="225.2" r="3.6" class="s-b f-b" stroke-width="1.6"><title>W20 · B2B · 43.9% (100 of 228)</title></circle><circle cx="150.4" cy="202.3" r="3.6" class="s-b f-b" stroke-width="1.6"><title>S20 · B2B · 51.2% (107 of 209)</title></circle><circle cx="183.2" cy="211.6" r="3.6" class="s-b f-b" stroke-width="1.6"><title>W21 · B2B · 48.2% (162 of 336)</title></circle><circle cx="216.0" cy="217.6" r="3.6" class="s-b f-b" stroke-width="1.6"><title>S21 · B2B · 46.3% (181 of 391)</title></circle><circle cx="248.8" cy="221.7" r="3.6" class="s-b f-b" stroke-width="1.6"><title>W22 · B2B · 45.0% (179 of 398)</title></circle><circle cx="281.6" cy="200.7" r="3.6" class="s-b f-b" stroke-width="1.6"><title>S22 · B2B · 51.7% (121 of 234)</title></circle><circle cx="314.4" cy="152.5" r="3.6" class="s-b f-b" stroke-width="1.6"><title>W23 · B2B · 67.2% (184 of 274)</title></circle><circle cx="347.2" cy="146.4" r="3.6" class="s-b f-b" stroke-width="1.6"><title>S23 · B2B · 69.1% (152 of 220)</title></circle><circle cx="380.0" cy="165.7" r="3.6" class="s-b f-b" stroke-width="1.6"><title>W24 · B2B · 62.9% (156 of 248)</title></circle><circle cx="412.8" cy="160.7" r="3.6" class="s-b f-b" stroke-width="1.6"><title>S24 · B2B · 64.5% (160 of 248)</title></circle><circle cx="445.6" cy="172.8" r="3.6" class="s-b f-b" stroke-width="1.6"><title>F24 · B2B · 60.6% (57 of 94)</title></circle><circle cx="478.4" cy="166.5" r="3.6" class="s-b f-b" stroke-width="1.6"><title>W25 · B2B · 62.7% (104 of 166)</title></circle><circle cx="511.2" cy="150.4" r="3.6" class="s-b f-b" stroke-width="1.6"><title>X25 · B2B · 67.8% (97 of 143)</title></circle><circle cx="544.0" cy="151.5" r="3.6" class="s-b f-b" stroke-width="1.6"><title>S25 · B2B · 67.5% (112 of 166)</title></circle><circle cx="576.8" cy="171.8" r="3.6" class="s-b f-b" stroke-width="1.6"><title>F25 · B2B · 61.0% (89 of 146)</title></circle><circle cx="609.6" cy="164.5" r="3.6" class="s-b f-b" stroke-width="1.6"><title>W26 · B2B · 63.3% (126 of 199)</title></circle><circle cx="642.4" cy="179.6" r="3.6" class="s-b f-b" stroke-width="1.6"><title>X26 · B2B · 58.5% (114 of 195)</title></circle><circle cx="675.2" cy="200.0" r="3.6" class="s-b f-b" stroke-width="1.6"><title>S26 · B2B · 51.9% (122 of 235)</title></circle><circle cx="708.0" cy="201.5" r="3.6" class="s-b hollow" stroke-width="1.6"><title>F26 · B2B · 51.4% (18 of 35)</title></circle><text x="718.0" y="205.5" class="lab f-b" text-anchor="start">B2B</text><path d="M52.0,340.4 L281.6,345.4" class="ln trend s-o" stroke-width="1.5"><title>Industrials, least-squares fit W19–S22: -0.23 pp per batch</title></path><text x="166.8" y="333.9" class="tick mono f-o" text-anchor="middle">-0.2 pp/batch</text><path d="M314.4,356.4 L708.0,303.4" class="ln trend s-o" stroke-width="1.5"><title>Industrials, least-squares fit W23–S26: +1.42 pp per batch</title></path><text x="511.2" y="320.9" class="tick mono f-o" text-anchor="middle">+1.4 pp/batch</text><path d="M52.0,337.9 L84.8,340.7 L117.6,338.7 L150.4,353.0 L183.2,340.6 L216.0,346.0 L248.8,343.2 L281.6,343.3 L314.4,355.2 L347.2,353.5 L380.0,349.4 L412.8,330.5 L445.6,345.4 L478.4,326.3 L511.2,329.3 L544.0,335.7 L576.8,332.1 L609.6,318.1 L642.4,322.0 L675.2,287.7 L708.0,290.7" class="ln s-o" stroke-width="2.25"></path><circle cx="52.0" cy="337.9" r="3.6" class="s-o f-o" stroke-width="1.6"><title>W19 · Industrials · 7.7% (15 of 194)</title></circle><circle cx="84.8" cy="340.7" r="3.6" class="s-o f-o" stroke-width="1.6"><title>S19 · Industrials · 6.8% (12 of 176)</title></circle><circle cx="117.6" cy="338.7" r="3.6" class="s-o f-o" stroke-width="1.6"><title>W20 · Industrials · 7.5% (17 of 228)</title></circle><circle cx="150.4" cy="353.0" r="3.6" class="s-o f-o" stroke-width="1.6"><title>S20 · Industrials · 2.9% (6 of 209)</title></circle><circle cx="183.2" cy="340.6" r="3.6" class="s-o f-o" stroke-width="1.6"><title>W21 · Industrials · 6.8% (23 of 336)</title></circle><circle cx="216.0" cy="346.0" r="3.6" class="s-o f-o" stroke-width="1.6"><title>S21 · Industrials · 5.1% (20 of 391)</title></circle><circle cx="248.8" cy="343.2" r="3.6" class="s-o f-o" stroke-width="1.6"><title>W22 · Industrials · 6.0% (24 of 398)</title></circle><circle cx="281.6" cy="343.3" r="3.6" class="s-o f-o" stroke-width="1.6"><title>S22 · Industrials · 6.0% (14 of 234)</title></circle><circle cx="314.4" cy="355.2" r="3.6" class="s-o f-o" stroke-width="1.6"><title>W23 · Industrials · 2.2% (6 of 274)</title></circle><circle cx="347.2" cy="353.5" r="3.6" class="s-o f-o" stroke-width="1.6"><title>S23 · Industrials · 2.7% (6 of 220)</title></circle><circle cx="380.0" cy="349.4" r="3.6" class="s-o f-o" stroke-width="1.6"><title>W24 · Industrials · 4.0% (10 of 248)</title></circle><circle cx="412.8" cy="330.5" r="3.6" class="s-o f-o" stroke-width="1.6"><title>S24 · Industrials · 10.1% (25 of 248)</title></circle><circle cx="445.6" cy="345.4" r="3.6" class="s-o f-o" stroke-width="1.6"><title>F24 · Industrials · 5.3% (5 of 94)</title></circle><circle cx="478.4" cy="326.3" r="3.6" class="s-o f-o" stroke-width="1.6"><title>W25 · Industrials · 11.4% (19 of 166)</title></circle><circle cx="511.2" cy="329.3" r="3.6" class="s-o f-o" stroke-width="1.6"><title>X25 · Industrials · 10.5% (15 of 143)</title></circle><circle cx="544.0" cy="335.7" r="3.6" class="s-o f-o" stroke-width="1.6"><title>S25 · Industrials · 8.4% (14 of 166)</title></circle><circle cx="576.8" cy="332.1" r="3.6" class="s-o f-o" stroke-width="1.6"><title>F25 · Industrials · 9.6% (14 of 146)</title></circle><circle cx="609.6" cy="318.1" r="3.6" class="s-o f-o" stroke-width="1.6"><title>W26 · Industrials · 14.1% (28 of 199)</title></circle><circle cx="642.4" cy="322.0" r="3.6" class="s-o f-o" stroke-width="1.6"><title>X26 · Industrials · 12.8% (25 of 195)</title></circle><circle cx="675.2" cy="287.7" r="3.6" class="s-o f-o" stroke-width="1.6"><title>S26 · Industrials · 23.8% (56 of 235)</title></circle><circle cx="708.0" cy="290.7" r="3.6" class="s-o hollow" stroke-width="1.6"><title>F26 · Industrials · 22.9% (8 of 35)</title></circle><text x="718.0" y="294.7" class="lab f-o" text-anchor="start">Industrials</text><text x="24.0" y="406.0" class="cap m" text-anchor="start">Hollow marker: batch under 50 companies, excluded from the dashed least-squares fits (W19 to S22 and W23 to S26).</text><text x="24.0" y="421.0" class="cap m" text-anchor="start">A company can carry more than one industry label. Unspecified (0 companies in this window) not shown.</text><text x="24.0" y="438.0" class="foot mono m" text-anchor="start">Source: YC company directory via github.com/yc-oss/api, snapshot 2026-09-06.</text><text x="776.0" y="438.0" class="foot mono m" text-anchor="end">Chart: Islam Tayeb · imt.sh</text></svg>
