<svg xmlns="http://www.w3.org/2000/svg" viewBox="0 0 768 256" width="100%" class="imt" role="img"><style>
.imt{--bg:var(--background,#fafaf9);--ink:var(--foreground,#131110);--mut:var(--muted-foreground,#6b6865);
--rule:var(--border,#dfdedb);--prule:var(--page-rule,#131110);--bgl:var(--chart-context,#a5a3a1);--r:var(--roy-r,#f52027);--o:var(--roy-o,#ee7b00);
--y:var(--roy-y,#ffba06);--b:var(--roy-b,#0074c9);font-family:"Open Sans",Arial,sans-serif;font-size:14px}
@media (prefers-color-scheme:dark){.imt{--bg:var(--background,#1a1a1a);--ink:var(--foreground,#fafafa);
--mut:var(--muted-foreground,#a1a1a1);--rule:var(--border,#ffffff1a);--prule:var(--page-rule,#555);--bgl:var(--chart-context,#6b6b6b)}.imt .c0{stroke:#e11d48}.imt .ct0{fill:#e11d48}.imt .c1{stroke:#12a594}.imt .ct1{fill:#12a594}.imt .c2{stroke:#9f7aea}.imt .ct2{fill:#9f7aea}}
.dark .imt{--bg:var(--background,#1a1a1a);--ink:var(--foreground,#fafafa);--mut:var(--muted-foreground,#a1a1a1);
--rule:var(--border,#ffffff1a);--prule:var(--page-rule,#555);--bgl:var(--chart-context,#6b6b6b)}.dark .imt .c0{stroke:#e11d48}.dark .imt .ct0{fill:#e11d48}.dark .imt .c1{stroke:#12a594}.dark .imt .ct1{fill:#12a594}.dark .imt .c2{stroke:#9f7aea}.dark .imt .ct2{fill:#9f7aea}
.imt text{fill:var(--ink)}.imt .m{fill:var(--mut)}.imt .mono{font-family:ui-monospace,SFMono-Regular,Menlo,Consolas,"DejaVu Sans Mono",monospace}
.imt .kick{font-size:13px;font-weight:700;letter-spacing:.2em}.imt .h{font-size:20px;font-weight:600}
.imt .dek,.imt .cap{font-size:14px}.imt .tick{font-size:12px}.imt .foot{font-size:12px}.imt .lab{font-size:14px;font-weight:600}.imt .labr{font-size:14px}
.imt .ground{fill:var(--bg)}.imt .grid{stroke:var(--rule);opacity:.7}.imt .axis{stroke:var(--mut);opacity:.6}
.imt .ev{stroke:var(--prule);stroke-width:1.1;stroke-dasharray:1.5 3.5;stroke-linecap:round}
.imt .ln{fill:none;stroke-linejoin:round;stroke-linecap:round}.imt .c0{stroke:#e11d48}.imt .ct0{fill:#e11d48}.imt .c1{stroke:#0f9d8a}.imt .ct1{fill:#0f9d8a}.imt .c2{stroke:#8b5cf6}.imt .ct2{fill:#8b5cf6}.imt .bg{stroke:var(--bgl)}.imt .bgt{fill:var(--bgl)}
.imt .trend{stroke-dasharray:5 4;opacity:.8}.imt .hollow{fill:var(--bg)}
.imt .s-r{stroke:var(--r)}.imt .s-o{stroke:var(--o)}.imt .s-y{stroke:var(--y)}.imt .s-b{stroke:var(--b)}
.imt .f-r{fill:var(--r)}.imt .f-o{fill:var(--o)}.imt .f-y{fill:var(--y)}.imt .f-b{fill:var(--b)}
.imt .area{opacity:.12}
</style><line x1="64.0" y1="40.0" x2="636.0" y2="40.0" class="grid" stroke-width="1"/><line x1="64.0" y1="86.0" x2="636.0" y2="86.0" class="grid" stroke-width="1"/><line x1="64.0" y1="132.0" x2="636.0" y2="132.0" class="grid" stroke-width="1"/><line x1="64.0" y1="178.0" x2="636.0" y2="178.0" class="grid" stroke-width="1"/><text x="52.0" y="44.0" class="tick mono m" text-anchor="end">#1</text><text x="52.0" y="90.0" class="tick mono m" text-anchor="end">#2</text><text x="52.0" y="136.0" class="tick mono m" text-anchor="end">#3</text><text x="52.0" y="182.0" class="tick mono m" text-anchor="end">#4</text><text x="52.0" y="228.0" class="tick mono m" text-anchor="end">#5</text><defs><clipPath id="rankclip"><rect x="58" y="34" width="584" height="190"/></clipPath></defs><line x1="64.0" y1="224.0" x2="636.0" y2="224.0" class="axis" stroke-width="1"/><line x1="64.0" y1="224.0" x2="64.0" y2="232.0" class="axis" stroke-width="1"/><text x="64.0" y="246.0" class="tick mono m" text-anchor="middle">2019</text><line x1="94.1" y1="224.0" x2="94.1" y2="228.0" class="axis" stroke-width="1"/><line x1="124.2" y1="224.0" x2="124.2" y2="232.0" class="axis" stroke-width="1"/><text x="124.2" y="246.0" class="tick mono m" text-anchor="middle">2020</text><line x1="154.3" y1="224.0" x2="154.3" y2="228.0" class="axis" stroke-width="1"/><line x1="184.4" y1="224.0" x2="184.4" y2="232.0" class="axis" stroke-width="1"/><text x="184.4" y="246.0" class="tick mono m" text-anchor="middle">2021</text><line x1="214.5" y1="224.0" x2="214.5" y2="228.0" class="axis" stroke-width="1"/><line x1="244.6" y1="224.0" x2="244.6" y2="232.0" class="axis" stroke-width="1"/><text x="244.6" y="246.0" class="tick mono m" text-anchor="middle">2022</text><line x1="274.7" y1="224.0" x2="274.7" y2="228.0" class="axis" stroke-width="1"/><line x1="304.8" y1="224.0" x2="304.8" y2="232.0" class="axis" stroke-width="1"/><text x="304.8" y="246.0" class="tick mono m" text-anchor="middle">2023</text><line x1="334.9" y1="224.0" x2="334.9" y2="228.0" class="axis" stroke-width="1"/><line x1="365.1" y1="224.0" x2="365.1" y2="232.0" class="axis" stroke-width="1"/><text x="365.1" y="246.0" class="tick mono m" text-anchor="middle">2024</text><line x1="395.2" y1="224.0" x2="395.2" y2="228.0" class="axis" stroke-width="1"/><line x1="425.3" y1="224.0" x2="425.3" y2="228.0" class="axis" stroke-width="1"/><line x1="455.4" y1="224.0" x2="455.4" y2="232.0" class="axis" stroke-width="1"/><text x="455.4" y="246.0" class="tick mono m" text-anchor="middle">2025</text><line x1="485.5" y1="224.0" x2="485.5" y2="228.0" class="axis" stroke-width="1"/><line x1="515.6" y1="224.0" x2="515.6" y2="228.0" class="axis" stroke-width="1"/><line x1="545.7" y1="224.0" x2="545.7" y2="228.0" class="axis" stroke-width="1"/><line x1="575.8" y1="224.0" x2="575.8" y2="232.0" class="axis" stroke-width="1"/><text x="575.8" y="246.0" class="tick mono m" text-anchor="middle">2026</text><line x1="605.9" y1="224.0" x2="605.9" y2="228.0" class="axis" stroke-width="1"/><line x1="636.0" y1="224.0" x2="636.0" y2="228.0" class="axis" stroke-width="1"/><line x1="296.2" y1="14.0" x2="296.2" y2="224.0" class="ev" stroke-width="1"/><text x="302.2" y="24.0" class="tick mono" text-anchor="start">ChatGPT · Nov 2022</text><path d="M64.0,178.0 C79.1,178.0 79.1,132.0 94.1,132.0 C109.2,132.0 109.2,132.0 124.2,132.0 C139.3,132.0 139.3,178.0 154.3,178.0 C169.4,178.0 169.4,86.0 184.4,86.0 C199.5,86.0 199.5,132.0 214.5,132.0 C229.6,132.0 229.6,86.0 244.6,86.0 C259.7,86.0 259.7,86.0 274.7,86.0 C289.8,86.0 289.8,86.0 304.8,86.0 C319.9,86.0 319.9,132.0 334.9,132.0 C350.0,132.0 350.0,178.0 365.1,178.0 C380.1,178.0 380.1,224.0 395.2,224.0 C410.2,224.0 410.2,178.0 425.3,178.0 C440.3,178.0 440.3,132.0 455.4,132.0 C470.4,132.0 470.4,224.0 485.5,224.0 C500.5,224.0 500.5,224.0 515.6,224.0 C530.6,224.0 530.6,224.0 545.7,224.0 C560.7,224.0 560.7,132.0 575.8,132.0 C590.8,132.0 590.8,132.0 605.9,132.0 C620.9,132.0 620.9,178.0 636.0,178.0" class="ln bg" stroke-width="1.8"><title>Fintech</title></path><path d="M64.0,132.0 C79.1,132.0 79.1,178.0 94.1,178.0 C109.2,178.0 109.2,86.0 124.2,86.0 C139.3,86.0 139.3,86.0 154.3,86.0 C169.4,86.0 169.4,132.0 184.4,132.0 C199.5,132.0 199.5,86.0 214.5,86.0 C229.6,86.0 229.6,132.0 244.6,132.0 C259.7,132.0 259.7,132.0 274.7,132.0 C289.8,132.0 289.8,132.0 304.8,132.0 C319.9,132.0 319.9,86.0 334.9,86.0 C350.0,86.0 350.0,86.0 365.1,86.0 C380.1,86.0 380.1,132.0 395.2,132.0 C410.2,132.0 410.2,132.0 425.3,132.0 C440.3,132.0 440.3,178.0 455.4,178.0 C470.4,178.0 470.4,132.0 485.5,132.0 C500.5,132.0 500.5,178.0 515.6,178.0 C530.6,178.0 530.6,178.0 545.7,178.0 C560.7,178.0 560.7,178.0 575.8,178.0 C590.8,178.0 590.8,178.0 605.9,178.0 C620.9,178.0 620.9,132.0 636.0,132.0" class="ln bg" stroke-width="1.8"><title>Healthcare</title></path><path d="M64.0,86.0 C79.1,86.0 79.1,86.0 94.1,86.0 C109.2,86.0 109.2,178.0 124.2,178.0 C139.3,178.0 139.3,132.0 154.3,132.0 C169.4,132.0 169.4,178.0 184.4,178.0 C199.5,178.0 199.5,178.0 214.5,178.0 C229.6,178.0 229.6,178.0 244.6,178.0 C259.7,178.0 259.7,178.0 274.7,178.0 C289.8,178.0 289.8,178.0 304.8,178.0 C319.9,178.0 319.9,178.0 334.9,178.0 C350.0,178.0 350.0,132.0 365.1,132.0 C380.1,132.0 380.1,178.0 395.2,178.0 C410.2,178.0 410.2,86.0 425.3,86.0 C440.3,86.0 440.3,224.0 455.4,224.0 C470.4,224.0 470.4,178.0 485.5,178.0 C500.5,178.0 500.5,132.0 515.6,132.0 C530.6,132.0 530.6,86.0 545.7,86.0 C560.7,86.0 560.7,224.0 575.8,224.0 C590.8,224.0 590.8,224.0 605.9,224.0 C620.9,224.0 620.9,224.0 636.0,224.0" class="ln bg" stroke-width="1.8"><title>Consumer</title></path><path d="M64.0,40.0 C79.1,40.0 79.1,40.0 94.1,40.0 C109.2,40.0 109.2,40.0 124.2,40.0 C139.3,40.0 139.3,40.0 154.3,40.0 C169.4,40.0 169.4,40.0 184.4,40.0 C199.5,40.0 199.5,40.0 214.5,40.0 C229.6,40.0 229.6,40.0 244.6,40.0 C259.7,40.0 259.7,40.0 274.7,40.0 C289.8,40.0 289.8,40.0 304.8,40.0 C319.9,40.0 319.9,40.0 334.9,40.0 C350.0,40.0 350.0,40.0 365.1,40.0 C380.1,40.0 380.1,40.0 395.2,40.0 C410.2,40.0 410.2,40.0 425.3,40.0 C440.3,40.0 440.3,40.0 455.4,40.0 C470.4,40.0 470.4,40.0 485.5,40.0 C500.5,40.0 500.5,40.0 515.6,40.0 C530.6,40.0 530.6,40.0 545.7,40.0 C560.7,40.0 560.7,40.0 575.8,40.0 C590.8,40.0 590.8,40.0 605.9,40.0 C620.9,40.0 620.9,40.0 636.0,40.0" class="ln s-b" stroke-width="3.5"><title>B2B</title></path><path d="M64.0,224.0 C79.1,224.0 79.1,224.0 94.1,224.0 C109.2,224.0 109.2,224.0 124.2,224.0 C139.3,224.0 139.3,224.0 154.3,224.0 C169.4,224.0 169.4,224.0 184.4,224.0 C199.5,224.0 199.5,224.0 214.5,224.0 C229.6,224.0 229.6,224.0 244.6,224.0 C259.7,224.0 259.7,224.0 274.7,224.0 C289.8,224.0 289.8,224.0 304.8,224.0 C319.9,224.0 319.9,224.0 334.9,224.0 C350.0,224.0 350.0,224.0 365.1,224.0 C380.1,224.0 380.1,86.0 395.2,86.0 C410.2,86.0 410.2,224.0 425.3,224.0 C440.3,224.0 440.3,86.0 455.4,86.0 C470.4,86.0 470.4,86.0 485.5,86.0 C500.5,86.0 500.5,86.0 515.6,86.0 C530.6,86.0 530.6,132.0 545.7,132.0 C560.7,132.0 560.7,86.0 575.8,86.0 C590.8,86.0 590.8,86.0 605.9,86.0 C620.9,86.0 620.9,86.0 636.0,86.0" class="ln s-o" stroke-width="3.5"><title>Industrials</title></path><text x="655.0" y="182.5" class="labr bgt" text-anchor="start">Fintech</text><text x="655.0" y="136.5" class="labr bgt" text-anchor="start">Healthcare</text><text x="655.0" y="228.5" class="labr bgt" text-anchor="start">Consumer</text><text x="655.0" y="44.5" class="lab f-b" text-anchor="start">B2B</text><text x="655.0" y="90.5" class="lab f-o" text-anchor="start">Industrials</text></svg>
