<svg xmlns="http://www.w3.org/2000/svg" viewBox="0 0 768 350" width="768" height="350" role="img"><line x1="56.0" y1="223.3" x2="636.0" y2="223.3" stroke-width="1" stroke="#dfdedb" opacity=".7"/><line x1="56.0" y1="126.7" x2="636.0" y2="126.7" stroke-width="1" stroke="#dfdedb" opacity=".7"/><line x1="56.0" y1="30.0" x2="636.0" y2="30.0" stroke-width="1" stroke="#dfdedb" opacity=".7"/><text x="48.0" y="324.0" text-anchor="end" fill="#6b6865" font-family="ui-monospace,SFMono-Regular,Menlo,Consolas,'DejaVu Sans Mono',monospace" font-size="12">0</text><text x="48.0" y="227.3" text-anchor="end" fill="#6b6865" font-family="ui-monospace,SFMono-Regular,Menlo,Consolas,'DejaVu Sans Mono',monospace" font-size="12">5%</text><text x="48.0" y="130.7" text-anchor="end" fill="#6b6865" font-family="ui-monospace,SFMono-Regular,Menlo,Consolas,'DejaVu Sans Mono',monospace" font-size="12">10%</text><text x="48.0" y="34.0" text-anchor="end" fill="#6b6865" font-family="ui-monospace,SFMono-Regular,Menlo,Consolas,'DejaVu Sans Mono',monospace" font-size="12">15%</text><line x1="56.0" y1="320.0" x2="636.0" y2="320.0" stroke-width="1" stroke="#6b6865" opacity=".6"/><line x1="56.0" y1="320.0" x2="56.0" y2="328.0" stroke-width="1" stroke="#6b6865" opacity=".6"/><text x="56.0" y="342.0" text-anchor="middle" fill="#6b6865" font-family="ui-monospace,SFMono-Regular,Menlo,Consolas,'DejaVu Sans Mono',monospace" font-size="12">2019</text><line x1="86.5" y1="320.0" x2="86.5" y2="324.0" stroke-width="1" stroke="#6b6865" opacity=".6"/><line x1="117.1" y1="320.0" x2="117.1" y2="328.0" stroke-width="1" stroke="#6b6865" opacity=".6"/><text x="117.1" y="342.0" text-anchor="middle" fill="#6b6865" font-family="ui-monospace,SFMono-Regular,Menlo,Consolas,'DejaVu Sans Mono',monospace" font-size="12">2020</text><line x1="147.6" y1="320.0" x2="147.6" y2="324.0" stroke-width="1" stroke="#6b6865" opacity=".6"/><line x1="178.1" y1="320.0" x2="178.1" y2="328.0" stroke-width="1" stroke="#6b6865" opacity=".6"/><text x="178.1" y="342.0" text-anchor="middle" fill="#6b6865" font-family="ui-monospace,SFMono-Regular,Menlo,Consolas,'DejaVu Sans Mono',monospace" font-size="12">2021</text><line x1="208.6" y1="320.0" x2="208.6" y2="324.0" stroke-width="1" stroke="#6b6865" opacity=".6"/><line x1="239.2" y1="320.0" x2="239.2" y2="328.0" stroke-width="1" stroke="#6b6865" opacity=".6"/><text x="239.2" y="342.0" text-anchor="middle" fill="#6b6865" font-family="ui-monospace,SFMono-Regular,Menlo,Consolas,'DejaVu Sans Mono',monospace" font-size="12">2022</text><line x1="269.7" y1="320.0" x2="269.7" y2="324.0" stroke-width="1" stroke="#6b6865" opacity=".6"/><line x1="300.2" y1="320.0" x2="300.2" y2="328.0" stroke-width="1" stroke="#6b6865" opacity=".6"/><text x="300.2" y="342.0" text-anchor="middle" fill="#6b6865" font-family="ui-monospace,SFMono-Regular,Menlo,Consolas,'DejaVu Sans Mono',monospace" font-size="12">2023</text><line x1="330.7" y1="320.0" x2="330.7" y2="324.0" stroke-width="1" stroke="#6b6865" opacity=".6"/><line x1="361.3" y1="320.0" x2="361.3" y2="328.0" stroke-width="1" stroke="#6b6865" opacity=".6"/><text x="361.3" y="342.0" text-anchor="middle" fill="#6b6865" font-family="ui-monospace,SFMono-Regular,Menlo,Consolas,'DejaVu Sans Mono',monospace" font-size="12">2024</text><line x1="391.8" y1="320.0" x2="391.8" y2="324.0" stroke-width="1" stroke="#6b6865" opacity=".6"/><line x1="422.3" y1="320.0" x2="422.3" y2="324.0" stroke-width="1" stroke="#6b6865" opacity=".6"/><line x1="452.8" y1="320.0" x2="452.8" y2="328.0" stroke-width="1" stroke="#6b6865" opacity=".6"/><text x="452.8" y="342.0" text-anchor="middle" fill="#6b6865" font-family="ui-monospace,SFMono-Regular,Menlo,Consolas,'DejaVu Sans Mono',monospace" font-size="12">2025</text><line x1="483.4" y1="320.0" x2="483.4" y2="324.0" stroke-width="1" stroke="#6b6865" opacity=".6"/><line x1="513.9" y1="320.0" x2="513.9" y2="324.0" stroke-width="1" stroke="#6b6865" opacity=".6"/><line x1="544.4" y1="320.0" x2="544.4" y2="324.0" stroke-width="1" stroke="#6b6865" opacity=".6"/><line x1="574.9" y1="320.0" x2="574.9" y2="328.0" stroke-width="1" stroke="#6b6865" opacity=".6"/><text x="574.9" y="342.0" text-anchor="middle" fill="#6b6865" font-family="ui-monospace,SFMono-Regular,Menlo,Consolas,'DejaVu Sans Mono',monospace" font-size="12">2026</text><line x1="605.5" y1="320.0" x2="605.5" y2="324.0" stroke-width="1" stroke="#6b6865" opacity=".6"/><line x1="636.0" y1="320.0" x2="636.0" y2="324.0" stroke-width="1" stroke="#6b6865" opacity=".6"/><line x1="291.5" y1="22.0" x2="291.5" y2="320.0" stroke="#131110" stroke-width="1.1" stroke-dasharray="1.5 3.5" stroke-linecap="round"/><text x="297.5" y="34.0" text-anchor="start" fill="#131110" font-family="ui-monospace,SFMono-Regular,Menlo,Consolas,'DejaVu Sans Mono',monospace" font-size="12">ChatGPT · Nov 2022</text><line x1="513.9" y1="22.0" x2="513.9" y2="320.0" stroke="#131110" stroke-width="1.1" stroke-dasharray="1.5 3.5" stroke-linecap="round"/><text x="507.9" y="52.0" text-anchor="end" fill="#131110" font-family="ui-monospace,SFMono-Regular,Menlo,Consolas,'DejaVu Sans Mono',monospace" font-size="12">Full-stack AI RFS · Jun 2025</text><path d="M56.0,270.1 L86.5,254.1 L117.1,294.5 L147.6,310.7 L178.1,279.8 L208.6,275.5 L239.2,266.6 L269.7,245.6 L300.2,263.5 L330.7,276.1 L361.3,296.6 L391.8,257.6 L422.3,258.3 L452.8,203.6 L483.4,184.9 L513.9,215.2 L544.4,161.1 L574.9,193.8 L605.5,161.3 L636.0,89.7" stroke-width="3.5" fill="none" stroke-linejoin="round" stroke-linecap="round" stroke="#0074c9"><title>Full-stack AI</title></path><circle cx="56.0" cy="270.1" r="6" fill="transparent" stroke="none"><title>Winter 2019: 5 of 194 companies (2.6%)</title></circle><circle cx="86.5" cy="254.1" r="6" fill="transparent" stroke="none"><title>Summer 2019: 6 of 176 companies (3.4%)</title></circle><circle cx="117.1" cy="294.5" r="6" fill="transparent" stroke="none"><title>Winter 2020: 3 of 228 companies (1.3%)</title></circle><circle cx="147.6" cy="310.7" r="6" fill="transparent" stroke="none"><title>Summer 2020: 1 of 209 companies (0.5%)</title></circle><circle cx="178.1" cy="279.8" r="6" fill="transparent" stroke="none"><title>Winter 2021: 7 of 336 companies (2.1%)</title></circle><circle cx="208.6" cy="275.5" r="6" fill="transparent" stroke="none"><title>Summer 2021: 9 of 391 companies (2.3%)</title></circle><circle cx="239.2" cy="266.6" r="6" fill="transparent" stroke="none"><title>Winter 2022: 11 of 398 companies (2.8%)</title></circle><circle cx="269.7" cy="245.6" r="6" fill="transparent" stroke="none"><title>Summer 2022: 9 of 234 companies (3.9%)</title></circle><circle cx="300.2" cy="263.5" r="6" fill="transparent" stroke="none"><title>Winter 2023: 8 of 274 companies (2.9%)</title></circle><circle cx="330.7" cy="276.1" r="6" fill="transparent" stroke="none"><title>Summer 2023: 5 of 220 companies (2.3%)</title></circle><circle cx="361.3" cy="296.6" r="6" fill="transparent" stroke="none"><title>Winter 2024: 3 of 248 companies (1.2%)</title></circle><circle cx="391.8" cy="257.6" r="6" fill="transparent" stroke="none"><title>Summer 2024: 8 of 248 companies (3.2%)</title></circle><circle cx="422.3" cy="258.3" r="6" fill="transparent" stroke="none"><title>Fall 2024: 3 of 94 companies (3.2%)</title></circle><circle cx="452.8" cy="203.6" r="6" fill="transparent" stroke="none"><title>Winter 2025: 10 of 166 companies (6.0%)</title></circle><circle cx="483.4" cy="184.9" r="6" fill="transparent" stroke="none"><title>Spring 2025: 10 of 143 companies (7.0%)</title></circle><circle cx="513.9" cy="215.2" r="6" fill="transparent" stroke="none"><title>Summer 2025: 9 of 166 companies (5.4%)</title></circle><circle cx="544.4" cy="161.1" r="6" fill="transparent" stroke="none"><title>Fall 2025: 12 of 146 companies (8.2%)</title></circle><circle cx="574.9" cy="193.8" r="6" fill="transparent" stroke="none"><title>Winter 2026: 13 of 199 companies (6.5%)</title></circle><circle cx="605.5" cy="161.3" r="6" fill="transparent" stroke="none"><title>Spring 2026: 16 of 195 companies (8.2%)</title></circle><circle cx="636.0" cy="89.7" r="6" fill="transparent" stroke="none"><title>Summer 2026: 28 of 235 companies (11.9%)</title></circle><text x="655.0" y="94.2" text-anchor="start" fill="#0074c9" font-family="'Open Sans',Arial,sans-serif" font-size="14" font-weight="600">Full-stack AI</text></svg>
